# xmcd
#
# Track frame offsets: 
#        150
#        16316
#        37069
#        64795
#        89013
#        112858
#        129609
#        160548
#        180575
#        201194
#
# Disc length: 2959 seconds
#
# Revision: 0
# Processed by: cddbd v1.5.2PL0 Copyright (c) Steve Scherf et al.
# Submitted via: ExactAudioCopy v0.99pb5
#
DISCID=800b8d0a
DTITLE=Ruth Brown - Ms. B's Blues
DYEAR=2009
DGENRE=Blues
TTITLE0=Ice Water In Your Veins
TTITLE1=Go On Fool
TTITLE2=Cabbage Head
TTITLE3=I'm Gonna Move To The Outskirts Of Town
TTITLE4=Too Little Too Late
TTITLE5=Destination Heartbreak
TTITLE6=That Train Don't Stop Here
TTITLE7=False Friend Blues
TTITLE8=Never Let Me Go
TTITLE9=Good Day For The Blues
EXTD=
EXTT0=
EXTT1=
EXTT2=
EXTT3=
EXTT4=
EXTT5=
EXTT6=
EXTT7=
EXTT8=
EXTT9=
PLAYORDER=
